<svg width="196" height="186" viewBox="0 0 196 186" fill="none" xmlns="http://www.w3.org/2000/svg">
<g clip-path="url(#clip0_8_2)">
<path d="M35.0724 97.8542C36.1 97.0138 37.061 96.2248 38.0327 96.2113C45.5153 96.1075 52.9999 96.1542 59.8613 96.1542C63.1441 104.101 66.2634 111.653 69.745 120.081C64.2456 124.869 57.778 130.501 50.7538 136.616C43.2332 133.005 42.0559 132.898 30.8477 135.959C27.7184 128.571 24.5299 121.043 21.2534 113.308C28.449 109.865 33.6629 105.726 35.0724 97.8542Z" fill="#4DB94B"/>
<path d="M134.909 83.3321C132.467 78.2141 130.117 73.4881 127.523 68.2722C133.164 62.9868 139.299 57.2383 145.8 51.1467C151.65 55.8889 158.779 56.1459 167.184 52.1416C170.467 60.0463 173.592 67.5682 176.847 75.4037C169.26 78.9171 163.815 83.2909 162.644 91.8317C154.649 91.8317 146.714 91.9211 138.787 91.7112C137.864 91.6868 136.625 90.156 136.171 89.0593C135.485 87.4031 135.362 85.5142 134.909 83.3321Z" fill="#4CB94A"/>
<path d="M48.185 53.6135C49.798 52.6876 51.0682 51.9383 52.5738 51.05C58.3434 57.1281 64.0529 63.1429 69.4275 68.8049C66.384 76.1139 63.2498 83.6407 59.9132 91.6538C52.5432 91.6538 44.2673 91.6538 35.5087 91.6538C34.1247 85.0008 29.7623 80.5703 23.8736 77.2708C22.905 76.7282 22 74.452 22.3568 73.426C24.7387 66.576 27.4711 59.8479 29.8151 53.79C36.5874 53.79 42.2148 53.79 48.185 53.6135Z" fill="#EF4226"/>
<path d="M108.985 130.173C114.147 127.816 118.92 125.566 124.647 122.865C129.785 128.012 135.654 133.812 141.368 139.761C141.847 140.259 141.626 141.966 141.148 142.761C138.091 147.847 138.147 153.097 139.531 158.663C139.843 159.92 138.959 162.416 137.935 162.91C131.41 166.057 124.692 168.802 117.796 171.784C114.249 164.075 109.532 158.99 101.151 157.828C101.151 149.914 101.019 142.28 101.288 134.66C101.33 133.456 102.995 131.994 104.26 131.24C105.467 130.52 107.132 130.568 108.985 130.173Z" fill="#EFB41C"/>
<path d="M68.7435 167.322C67.3169 166.725 66.231 166.312 65.1752 165.833C58.0712 162.61 58.6535 162.654 59.2756 155.152C59.6625 150.486 57.9709 145.648 57.0793 140.053C62.1862 135.176 68.282 129.355 73.8753 124.014C80.7628 126.404 88.0194 128.858 95.203 131.51C95.9692 131.793 96.7617 133.222 96.7762 134.132C96.9 141.923 96.8472 149.718 96.8472 157.788C89.0929 159.072 84.0491 163.712 80.8313 171.345C76.8459 170.031 72.972 168.754 68.7435 167.322Z" fill="#22C0F0"/>
<path d="M136.593 128.407C133.262 125.376 130.182 122.596 128.285 120.884C131.258 112.385 133.644 105.271 136.311 98.265C136.682 97.2907 138.425 96.2725 139.556 96.2454C147.029 96.0664 154.508 96.1529 162.506 96.1529C163.645 104.153 168.343 109.323 176.86 112.711C173.793 119.771 170.886 126.712 167.681 133.512C167.287 134.346 165.116 135.056 164.078 134.756C157.649 132.892 151.594 133.118 145.083 138.115C142.268 134.884 139.556 131.77 136.593 128.407Z" fill="#7B4D9F"/>
<path d="M76.0593 18.086C79.2528 16.5196 80.735 17.4478 82.0611 20.3336C84.2902 25.1841 88.0351 28.5561 93.3273 30.2015C94.4895 30.5629 95.9536 32.2733 96.0249 33.4392C96.4298 40.0621 96.6038 46.7113 96.4714 53.3438C96.4473 54.5532 94.8815 56.31 93.6243 56.8194C87.1169 59.4564 80.4785 61.7703 72.5918 64.6732C68.1865 60.3484 62.4004 54.7275 56.7281 48.994C56.2377 48.4984 56.0913 46.9919 56.4746 46.4055C60.6434 40.0269 59.7583 33.4828 56.8187 26.0517C63.2305 23.3779 69.459 20.7806 76.0593 18.086Z" fill="#EFB41D"/>
<path d="M100.85 36.2328C100.85 34.2781 100.85 32.7937 100.85 31.0517C108.878 29.4561 114.238 24.9274 117.345 16.2976C125.079 19.4209 132.636 22.473 140.651 25.7098C137.988 33.0647 136.926 39.6591 140.928 46.0646C141.302 46.6626 140.711 48.3536 140.05 49.0304C134.71 54.4926 129.247 59.8335 124.437 64.6012C116.737 61.4475 109.464 58.4689 100.85 54.9408C100.85 49.8782 100.85 43.2907 100.85 36.2328Z" fill="#22C0F0"/>
<path d="M9.36559 92.726C12.3246 86.6053 16.0543 84.4855 21.2455 85.6687C25.6066 86.6628 28.7075 90.4299 28.8541 94.9119C29.0424 100.667 24.7885 105.119 19.0665 105.155C12.6337 105.195 8.87312 100.58 9.36559 92.726Z" fill="#F0452A"/>
<path d="M91.2995 20.6002C87.926 14.4989 88.4394 9.75764 92.5531 6.44134C96.3008 3.42004 101.249 3.37649 104.96 6.33215C109.442 9.90163 110.105 16.087 106.519 20.5052C103.342 24.4183 96.1862 25.842 91.2995 20.6002Z" fill="#27C1F0"/>
<path d="M155.187 140.151C160.895 140.37 164.35 143.089 165.532 148.213C166.533 152.555 164.722 156.087 161.062 158.437C157.354 160.817 153.483 160.632 149.89 158.051C146.413 155.552 145.34 151.924 146.157 147.927C147.09 143.367 150.277 140.929 155.187 140.151Z" fill="#EFB520"/>
<path d="M183.628 84.9677C188.685 89.3265 189.857 93.2137 187.789 97.7534C185.936 101.819 181.55 104.164 177.224 103.401C171.42 102.377 167.848 97.0287 169.118 91.264C170.457 85.1831 176.03 82.6358 183.628 84.9677Z" fill="#7D50A1"/>
<path d="M109.086 176.956C106.099 182.483 102.405 184.616 97.9283 183.711C93.391 182.794 90.2137 179.307 89.9214 174.801C89.6057 169.934 91.7387 166.501 96.2473 164.657C103.692 161.611 111.75 169.129 109.086 176.956Z" fill="#25C0F0"/>
<path d="M49.9188 144.097C53.6134 148.166 54.0402 152.378 51.3979 156.655C49.1959 160.22 45.6932 161.593 41.5639 160.973C37.1572 160.311 34.4721 157.593 33.472 153.335C32.5042 149.216 33.9019 145.707 37.2788 143.33C41.3923 140.435 45.6423 140.716 49.9188 144.097Z" fill="#4EB94C"/>
<path d="M164.987 36.2859C165.202 41.8526 162.879 45.447 157.936 46.8257C153.778 47.9854 149.928 46.9483 147.273 43.2861C144.53 39.502 144.539 35.4941 147.184 31.6646C149.472 28.3523 152.804 27.0187 156.753 27.6817C161.361 28.4554 164.091 31.2846 164.987 36.2859Z" fill="#4DB94B"/>
<path d="M38.8682 48.0823C33.1494 45.4692 30.8267 41.9577 31.5875 37.2786C32.3317 32.7012 34.9254 29.682 39.6064 28.9495C43.6974 28.3094 47.8575 29.2932 49.3852 33.1927C50.5798 36.2417 50.8046 40.4557 49.6471 43.4514C48.0388 47.6137 43.8911 49.1678 38.8682 48.0823Z" fill="#EFB41D"/>
</g>
<defs>
<clipPath id="clip0_8_2">
<rect width="196" height="186" rx="8" fill="white"/>
</clipPath>
</defs>
</svg>
